<svg width="275" height="365" viewBox="0 0 275 365" fill="none" xmlns="http://www.w3.org/2000/svg">
<path d="M179.951 322.024L179.942 322.032L179.935 322.04C162.143 341.271 138.139 351.944 116.307 344.085L116.298 344.081L116.288 344.079C94.6497 338.162 73.2412 325.817 52.9095 308.566C34.2167 290.534 26.9379 266.904 19.4027 242.442L19.3806 242.37C16.8699 216.977 10.8433 193.155 4.02716 167.384C-0.55856 140.957 4.34219 116.6 14.3745 98.3425L14.3746 98.3426L14.3789 98.3341C26.1113 74.9255 42.545 59.2687 62.7543 54.726L62.7544 54.7262L62.7649 54.7234C82.2491 49.4398 102.229 35.5643 123.029 14.7733C133.994 5.88485 143.396 1.50359 152.924 0.985838C162.453 0.467968 172.151 3.81263 183.715 10.4707C202.625 24.5646 226.286 43.8414 244.682 59.4792L244.685 59.4822C262.562 74.1032 272.984 101.252 273.637 127.062C272.858 154.667 265.051 177.058 256.234 201.937C243.286 223.4 233.445 241.57 223.461 263.455C210.872 285.495 200.413 303.543 179.951 322.024Z" fill="#A86E4D" stroke="black" stroke-width="0.5"/>
<path d="M256.461 220.045C244.015 242.861 233.132 260.65 223.683 281.569ZM256.461 220.045C245.329 240.19 236.305 262.463 223.683 281.569ZM223.683 281.569C213.199 299.255 199.693 319 180.118 340.21ZM223.683 281.569C213.988 299.606 199.077 319.88 180.118 340.21ZM180.118 340.21C161.134 358.097 140.614 366.05 116.222 362.32ZM180.118 340.21C160.605 360.924 142.272 367.973 116.222 362.32ZM116.222 362.32C90.4114 358.828 70.864 346.608 52.7417 326.751ZM116.222 362.32C89.9848 357.408 71.9637 345.553 52.7417 326.751ZM52.7417 326.751C36.1231 307.537 24.0821 283.987 19.1343 260.42ZM52.7417 326.751C34.9947 305.65 22.7302 286.617 19.1343 260.42ZM19.1343 260.42C13.8605 233.708 7.76929 211.116 3.78269 185.437ZM19.1343 260.42C15.5146 234.246 11.0184 210.695 3.78269 185.437ZM3.78269 185.437C-1.86093 161.056 1.76601 138.811 14.1554 116.222ZM3.78269 185.437C-3.05251 161.166 3.58311 138.999 14.1554 116.222ZM14.1554 116.222C27.6469 95.0307 42.0632 79.3319 62.6995 72.4821ZM14.1554 116.222C26.834 93.9527 44.6147 82.2147 62.6995 72.4821ZM62.6995 72.4821C83.2614 63.6735 102.139 51.9881 122.861 32.5874ZM62.6995 72.4821C83.3286 63.4583 101.891 49.9541 122.861 32.5874ZM122.861 32.5874C141.988 14.9151 163.218 12.1606 183.852 28.2614ZM122.861 32.5874C144.904 12.3031 161.766 12.8477 183.852 28.2614ZM183.852 28.2614C202.959 46.1719 223.394 61.5115 244.844 77.2887ZM183.852 28.2614C204.899 44.2726 223.521 62.5722 244.844 77.2887ZM244.844 77.2887C266.693 94.1595 275.095 116.649 273.887 145.062ZM244.844 77.2887C265.548 94.3283 274.007 118.007 273.887 145.062ZM273.887 145.062C272.16 173.941 268.702 197.682 256.461 220.045ZM273.887 145.062C273.555 172.078 268.361 197.833 256.461 220.045Z" fill="#A86E4D"/>
<path d="M256.461 220.045C244.015 242.861 233.132 260.65 223.683 281.569M256.461 220.045C245.329 240.19 236.305 262.463 223.683 281.569M256.461 220.045C268.702 197.682 272.16 173.941 273.887 145.062M256.461 220.045C268.361 197.833 273.555 172.078 273.887 145.062M223.683 281.569C213.199 299.255 199.693 319 180.118 340.21M223.683 281.569C213.988 299.606 199.077 319.88 180.118 340.21M180.118 340.21C161.134 358.097 140.614 366.05 116.222 362.32M180.118 340.21C160.605 360.924 142.272 367.973 116.222 362.32M116.222 362.32C90.4114 358.828 70.864 346.608 52.7417 326.751M116.222 362.32C89.9848 357.408 71.9637 345.553 52.7417 326.751M52.7417 326.751C36.1231 307.537 24.0821 283.987 19.1343 260.42M52.7417 326.751C34.9947 305.65 22.7302 286.617 19.1343 260.42M19.1343 260.42C13.8605 233.708 7.76929 211.116 3.78269 185.437M19.1343 260.42C15.5146 234.246 11.0184 210.695 3.78269 185.437M3.78269 185.437C-1.86093 161.056 1.76601 138.811 14.1554 116.222M3.78269 185.437C-3.05251 161.166 3.58311 138.999 14.1554 116.222M14.1554 116.222C27.6469 95.0307 42.0632 79.3319 62.6995 72.4821M14.1554 116.222C26.834 93.9527 44.6147 82.2147 62.6995 72.4821M62.6995 72.4821C83.2614 63.6735 102.139 51.9881 122.861 32.5874M62.6995 72.4821C83.3286 63.4583 101.891 49.9541 122.861 32.5874M122.861 32.5874C141.988 14.9151 163.218 12.1606 183.852 28.2614M122.861 32.5874C144.904 12.3031 161.766 12.8477 183.852 28.2614M183.852 28.2614C202.959 46.1719 223.394 61.5115 244.844 77.2887M183.852 28.2614C204.899 44.2726 223.521 62.5722 244.844 77.2887M244.844 77.2887C266.693 94.1595 275.095 116.649 273.887 145.062M244.844 77.2887C265.548 94.3283 274.007 118.007 273.887 145.062" stroke="black" stroke-width="0.5"/>
</svg>
