<svg width="345" height="275" viewBox="0 0 345 275" fill="none" xmlns="http://www.w3.org/2000/svg">
<path d="M307.51 203.568C290.71 235.07 275.771 251.957 245.51 262.568C219.663 273.766 192.81 277.681 164.51 273.068C135.836 271.452 100.73 261.408 61.0096 248.068C22.4949 233.729 -0.0517536 204.121 0.00964657 161.568C3.10797 115.36 20.0532 79.8299 49.5096 52.5677C84.0488 25.6026 113.703 7.27504 155.01 6.5677C195.295 5.113 231.562 11.0925 265.51 25.0677C303.495 39.7747 318.195 69.4808 324.01 104.568C325.067 142.234 320.875 172.801 307.51 203.568Z" fill="#A1B5A1"/>
<path d="M326.51 198.568C309.844 228.302 289.229 245.14 264.51 257.568M326.51 198.568C311.428 225.524 293.053 247.026 264.51 257.568M326.51 198.568C340.538 170.749 347.455 136.071 343.01 99.5677M326.51 198.568C340.239 168.633 347.536 135.847 343.01 99.5677M264.51 257.568C238.541 266.632 212.766 270.338 183.51 268.068M264.51 257.568C239.492 266.997 212.024 271.253 183.51 268.068M183.51 268.068C154.965 262.342 121.404 254.615 80.0097 243.068M183.51 268.068C154.328 265.282 123.402 256.615 80.0097 243.068M80.0097 243.068C36.9051 231.768 18.5154 202.557 19.0097 156.568M80.0097 243.068C36.391 230.291 19.8406 201.459 19.0097 156.568M19.0097 156.568C21.3161 111.247 36.8056 73.4162 68.5097 47.5677M19.0097 156.568C19.9563 109.284 35.1764 76.1516 68.5097 47.5677M68.5097 47.5677C99.821 18.4472 133.814 5.61254 174.01 1.56766M68.5097 47.5677C101.814 19.007 137.729 5.17488 174.01 1.56766M174.01 1.56766C212.209 -1.12805 249.246 5.89839 284.51 20.0677M174.01 1.56766C210.773 -1.01309 251.436 6.09422 284.51 20.0677M284.51 20.0677C321.102 35.6902 338.475 61.0264 343.01 99.5677M284.51 20.0677C320.122 34.5688 341.549 64.0252 343.01 99.5677" stroke="black"/>
</svg>
