<svg width="728" height="583" viewBox="0 0 728 583" fill="none" xmlns="http://www.w3.org/2000/svg">
<path d="M661.894 389.415C706.754 437.376 720.198 471.503 665.902 501.69C627.161 530.146 578.016 556.407 526.94 573.113C482.731 588.412 440.815 576.737 387.67 546.455C339.848 505.418 288.771 500.477 231.569 538.841C171.66 575.7 121.401 575.74 81.7585 542.412C45.7315 515.349 11.2835 482.294 20.1103 433.611C15.7948 386.382 23.0271 352.199 11.0726 312.186C-2.25405 270.138 2.0843 240.845 17.3549 194.958C28.1694 152.817 46.6686 112.221 91.3673 89.5235C123.044 59.9739 176.939 57.2049 232.468 60.5881C285.181 72.4357 340.382 60.3169 399.18 30.8953C451.126 0.527933 490.378 20.8557 479.199 94.3781C479.921 165.227 529.677 202.761 617.788 189.786C720.09 177.62 734.115 202.544 674.817 247.986C610.327 295.789 606.117 336.715 661.894 389.415Z" fill="#E3D8B5"/>
<path d="M677.894 376.414C720.934 425.512 722.46 457.218 681.902 488.688M677.894 376.414C725.044 419.934 732.21 461.129 681.902 488.688M677.894 376.414C633.486 329.432 635.971 284.501 690.817 234.984M677.894 376.414C625.441 330.056 630.47 286.253 690.817 234.984M681.902 488.688C638.214 513.326 595.026 537.582 542.94 560.112M681.902 488.688C640.642 514.089 593.106 539.414 542.94 560.112M542.94 560.112C492.747 575.673 448.715 568.037 403.67 533.454M542.94 560.112C491.056 581.603 453.789 572.132 403.67 533.454M403.67 533.454C354.242 499.328 307.191 496.075 247.569 525.84M403.67 533.454C352.955 496.329 310.606 493.889 247.569 525.84M247.569 525.84C192.573 557.002 140.079 555.139 97.7584 529.411M247.569 525.84C189.131 553 135.853 560.629 97.7584 529.411M97.7584 529.411C54.4981 497.057 30.8939 465.812 36.1103 420.61M97.7584 529.411C59.59 498.239 40.9262 465.027 36.1103 420.61M36.1103 420.61C36.1876 378.085 33.6803 339.353 27.0726 299.185M36.1103 420.61C32.5092 378.281 39.2822 339.805 27.0726 299.185M27.0726 299.185C23.8359 261.989 20.5081 220.506 33.3549 181.957M27.0726 299.185C21.3506 259.697 28.3194 226.648 33.3549 181.957M33.3549 181.957C46.0132 139.285 67.0225 107.497 107.367 76.5223M33.3549 181.957C46.2249 138.835 66.3001 103.211 107.367 76.5223M107.367 76.5223C142.756 49.1344 192.591 36.756 248.468 47.5869M107.367 76.5223C151.806 43.7295 188.097 38.1568 248.468 47.5869M248.468 47.5869C299.595 62.1774 355.508 50.1736 415.18 17.8941M248.468 47.5869C305.619 58.2417 355.876 52.4087 415.18 17.8941M415.18 17.8941C476.062 -12.0731 498.791 8.83457 495.199 81.3769M415.18 17.8941C472.527 -11.753 495.405 11.659 495.199 81.3769M495.199 81.3769C489.995 154.884 543.468 184.123 633.788 176.785M495.199 81.3769C494.337 151.008 542.414 184.43 633.788 176.785M633.788 176.785C732.23 167.195 751.221 187.837 690.817 234.984M633.788 176.785C723.775 164.603 750.791 189.041 690.817 234.984" stroke="black"/>
</svg>
