<svg width="343" height="372" viewBox="0 0 343 372" fill="none" xmlns="http://www.w3.org/2000/svg">
<path d="M229.7 346.017L229.691 346.024L229.683 346.032C208.242 366.038 179.284 377.166 152.928 368.976L152.919 368.973L152.911 368.971C126.82 362.813 101.012 349.966 76.5074 332.018C53.9767 313.257 45.2051 288.677 36.1262 263.235L36.0985 263.158C33.0725 236.742 25.8097 211.96 17.596 185.153C12.0717 157.671 17.9751 132.34 30.0643 113.349L30.0644 113.349L30.0696 113.34C44.2056 88.9942 64.0159 72.6915 88.401 67.9601L88.401 67.9602L88.4103 67.9581C111.873 62.4661 135.942 48.04 161.007 26.4122C174.225 17.1633 185.57 12.5957 197.077 12.0559C208.586 11.516 220.29 15.0038 234.23 21.9323C257.02 36.5943 285.536 56.6483 307.705 72.9162L307.709 72.9189C329.262 88.1353 341.816 116.377 342.603 143.214C341.665 171.925 332.258 195.213 321.633 221.094C306.029 243.42 294.17 262.322 282.138 285.087C266.969 308.013 254.363 326.79 229.7 346.017Z" fill="#E3D8B5" stroke="black" stroke-width="0.5"/>
<path d="M308.853 212.215C293.854 235.949 280.74 254.454 269.353 276.215M308.853 212.215C295.438 233.171 284.563 256.34 269.353 276.215M308.853 212.215C323.604 188.952 327.772 164.256 329.853 134.215M308.853 212.215C323.194 189.109 329.453 162.318 329.853 134.215M269.353 276.215C256.718 294.612 240.443 315.152 216.853 337.215M269.353 276.215C257.669 294.977 239.701 316.067 216.853 337.215M216.853 337.215C193.976 355.822 169.248 364.095 139.853 360.215M216.853 337.215C193.338 358.763 171.246 366.095 139.853 360.215M139.853 360.215C108.749 356.582 85.1924 343.87 63.3534 323.215M139.853 360.215C108.235 355.105 86.5176 342.773 63.3534 323.215M63.3534 323.215C43.3265 303.227 28.8159 278.73 22.8534 254.215M63.3534 323.215C41.9666 301.265 27.1868 281.465 22.8534 254.215M22.8534 254.215C16.498 226.427 9.15759 202.926 4.35338 176.215M22.8534 254.215C18.4914 226.987 13.073 202.488 4.35338 176.215M4.35338 176.215C-2.44769 150.852 1.9231 127.712 16.8534 104.215M4.35338 176.215C-3.88365 150.967 4.11286 127.908 16.8534 104.215M16.8534 104.215C33.1119 82.1704 50.4849 65.8399 75.3534 58.7146M16.8534 104.215C32.1323 81.0491 53.5596 68.8387 75.3534 58.7146M75.3534 58.7146C100.132 49.5515 122.882 37.3959 147.853 17.2146M75.3534 58.7146C100.213 49.3276 122.583 35.2801 147.853 17.2146M147.853 17.2146C170.903 -1.16877 196.487 -4.0341 221.353 12.7146M147.853 17.2146C174.417 -3.88586 194.737 -3.31938 221.353 12.7146M221.353 12.7146C244.379 31.3457 269.005 47.3025 294.853 63.7146M221.353 12.7146C246.717 29.37 269.157 48.4059 294.853 63.7146M294.853 63.7146C321.184 81.2641 331.309 104.658 329.853 134.215M294.853 63.7146C319.804 81.4397 329.997 106.071 329.853 134.215" stroke="black" stroke-width="0.5"/>
</svg>
